#!OML:ASF F:\VICON\USERDATA\INSTALL\rory3\rory3.ASF
:FULLY-SPECIFIED
:DEGREES
46
root 0.7663406790535706 18.060256226381554 21.278388898702307 -3.881019361412518 3.0069448235298153 0.3182323788705619
lfemur -0.10192888011782486 -4.125313833516433 -24.974114426969216
ltibia 16.619272511945354
lfoot 4.19579334184781 -18.38285143658875
ltoes -3.3223915240004347
rfemur -12.300179247040585 4.937700700883285 23.42245453502983
rtibia 27.890887999785207
rfoot -2.5992735107745606 -6.983669413167663
rtoes 4.720647796737806
lowerback 10.049363808121996 -1.179972676991057 0.6247134195907291
upperback -0.26891533795157685 -1.4077070104280356 1.3075456818439315
thorax -5.0377343492337685 -0.6830954130214614 2.3735706136256196
lowerneck -15.904655706783533 -2.9621867712768783 -3.1843698152840565
upperneck 21.18328842753126 -3.7212283597074407 1.5409450917062906
head 9.319831339899114 -1.815918724171193 0.5118194004076516
lclavicle 1.4770335284814959e-16 2.375481140718311e-16
lhumerus -26.72580838287896 0.3414632071908441 78.93390309203075
lradius 32.79696633907736
lwrist 5.331375584937732
lhand -29.350780654396846 20.88224670284456
lfingers 7.12502
lthumb -3.315216918645307 50.907509561762936
rclavicle 1.4454432795651712e-16 2.3513291446128004e-16
rhumerus -26.982991863329243 -12.498869258458347 -79.28771000355589
rradius 24.478585973453676
rwrist 8.21857985761506
rhand -17.51725161094407 21.53130291555294
rfingers 7.12502
rthumb 8.303180745960372 -7.835875360769428
47
root 0.6944187804070907 18.016584751726946 22.040440505310997 -4.875608657503212 0.4935298375074777 -0.34422455203236635
lfemur 0.6080610603934762 -2.462716708306253 -24.363794510513266
ltibia 20.216411484804162
lfoot 3.195254523582668 -17.224531728387717
ltoes -0.71247486528266
rfemur -11.598410313751222 5.530248056360717 24.91173283486842
rtibia 30.868043170360124
rfoot -5.212915297214146 -5.61395002894346
rtoes 6.149471567225875
lowerback 10.589492989799234 -0.17744784244181483 0.15374318055934943
upperback 0.019295883947883175 -0.10238162392136807 1.373818642432745
thorax -5.170658978502324 -0.022554670858038306 2.3342313670925368
lowerneck -15.867463022408021 -2.9469578809431543 -3.1436335050576893
upperneck 21.19479626524202 -3.694408775428654 1.477307137337486
head 9.322610064144625 -1.8048487360220429 0.5101007999659133
lclavicle 1.452963605772524e-16 2.35694295435874e-16
lhumerus -26.582933870851036 0.8113588150414381 79.06784168037925
lradius 32.737228731322986
lwrist 5.871909815706373
lhand -30.031180997088768 20.477536109899827
lfingers 7.12502
lthumb -3.7476681020754903 51.19981817407164
rclavicle 1.4224473746240529e-16 2.3336471007896754e-16
rhumerus -27.101445675127565 -13.668708008990697 -79.29730359841102
rradius 23.553972400142055
rwrist 8.820121130433723
rhand -17.73229635898923 21.576371770381826
rfingers 7.12502
rthumb 8.235209531761885 -7.773155381086214
48
root 0.7191305541812812 17.98548654416296 22.878894020109772 -5.531159722879749 0.5514819451939066 3.304449816645903
lfemur 2.1165180354358597 -2.8437005587756072 -27.118756657346548
ltibia 22.697109797700236
lfoot 3.1866900258223927 -15.77861464248602
ltoes 2.1458098608824407
rfemur -11.482162997257998 3.9474245656087197 22.089802940948402
rtibia 35.047490168705885
rfoot -8.047870760472595 -4.334864465727712
rtoes 6.650021902176073
lowerback 10.545690607261838 -0.08746741306308442 -2.3401239209661084
upperback 0.2684352784870069 -0.3928057920388055 0.793969797741141
thorax -5.005213542085902 -0.12515417035799303 2.66367737486176
lowerneck -15.903571200511816 -2.937505982949901 -3.082836428243713
upperneck 21.212849750355904 -3.6774134165798067 1.6121667166821945
head 9.324179257190377 -1.780680228300651 0.6030534040526613
lclavicle 1.4749840447084213e-16 2.373902998816354e-16
lhumerus -27.027680795534273 1.5925528893422758 79.30501027101965
lradius 32.14659492801926
lwrist 6.66904518107145
lhand -30.655721038888885 21.734232545285717
lfingers 7.12502
lthumb -4.142961692355995 51.99083650187942
rclavicle 1.4452221266351077e-16 2.351160059943054e-16
rhumerus -27.03633119966869 -14.845790848917874 -79.14602123865045
rradius 22.2613543495677
rwrist 10.072432220573667
rhand -17.872740866390266 21.410104852250136
rfingers 7.12502
rthumb 8.115464396289191 -8.043001447095833
49
root 0.6809184457783585 17.935666680501587 23.69096181537568 -5.443647797641422 0.4952658876811329 4.4488271356417455
lfemur 2.7908855794698884 -3.2019023857192925 -27.347187055353693
ltibia 25.928804891844514
lfoot 3.6926820130997635 -14.74123736063506
ltoes 1.5749841832849523
rfemur -12.209273076487042 2.9368000433108192 21.001010753437512
rtibia 39.647905110836874
rfoot -10.664439311044628 -3.750906826746909
rtoes 7.855825063589256
lowerback 10.66609179855617 0.10985756545862496 -3.0547399312407064
upperback 0.34964628748332294 -0.31404759520499015 0.5724128156378979
thorax -5.156307998963004 -0.03181411023915187 2.696711492399573
lowerneck -15.919829036813761 -2.919043811678878 -2.95815569369822
upperneck 21.138388384621457 -3.6474655319366973 1.6397054596295413
head 9.288819732884381 -1.7708992289759413 0.6293942621016605
lclavicle 1.4839034480621676e-16 2.3807304633603256e-16
lhumerus -27.806662838391325 2.1594402766855416 79.68984168745295
lradius 31.015932368212496
lwrist 7.116592788753412
lhand -30.704466939623387 21.86030843637255
lfingers 7.12502
lthumb -4.168858963745337 51.78989437070732
rclavicle 1.431003273870176e-16 2.3402274754965224e-16
rhumerus -27.256727268644582 -16.72684773684896 -79.23546877610126
rradius 21.022949675069246
rwrist 11.65359648442816
rhand -17.93431129811676 21.21488627630581
rfingers 7.12502
rthumb 8.077435429052736 -8.272782792160648
50
root 0.6270632323454131 17.867365663684094 24.162190320965976 -4.636395809576934 1.1029024879298 6.197851013154223
lfemur 2.895594027562616 -3.5664693058113004 -27.426760066620723
ltibia 29.241470275448368
lfoot 3.72998155001114 -13.979178668552002
ltoes 2.8596132646090586
rfemur -13.638438935381274 1.8835385655777295 19.246887323256743
rtibia 44.3588331700888
rfoot -12.842575664912353 -3.292193730697004
rtoes 8.52691069012356
lowerback 10.425179682342554 0.06970242396517862 -3.7528601673084703
upperback 0.352724080987463 -0.5027750910728217 0.3093893764541702
thorax -5.231485298134014 -0.10205531378466948 2.8873296207622436
lowerneck -16.0143467241507 -2.8941795882042443 -2.6659472680168057
upperneck 21.066156310574925 -3.626114614910293 1.5923871006806298
head 9.270639332851282 -1.7556898493728428 0.5891619408267654
lclavicle 1.455089343902669e-16 2.3586250918408796e-16
lhumerus -28.564638396360827 2.7872069085932054 80.11106166679244
lradius 29.547608116298044
lwrist 7.545546026096562
lhand -30.59777623327963 23.452860141771737
lfingers 7.12502
lthumb -4.097180333664662 52.93110072184778
rclavicle 1.451113734962659e-16 2.355690800973983e-16
rhumerus -27.378321524836302 -18.44474857752377 -79.6895435097545
rradius 20.239255616393315
rwrist 11.408024280631867
rhand -17.96922821499537 21.062541403125817
rfingers 7.12502
rthumb 8.096476392894857 -8.463480575905281
51
root 0.6687609019879486 17.82332734456826 24.543357897435612 -3.724838616748684 1.454961980606981 7.080217868974561
lfemur 1.7850703616860333 -3.924080224476443 -26.981956607186433
ltibia 33.30138080361607
lfoot 3.9084892219138636 -12.237811225315603
ltoes 2.921707767001669
rfemur -15.503211882992591 1.2809636503398067 18.422436458363673
rtibia 48.01779091895717
rfoot -13.088661939494088 -2.9776744362192775
rtoes 8.504027174068852
lowerback 10.37475882869146 0.0441030661592936 -3.5894386769307953
upperback 0.28832489475536055 -0.5715369768719236 0.25484122603679693
thorax -5.427353849808441 -0.1620542486622648 2.6249593716321784
lowerneck -16.084723851027064 -2.8900302016008 -2.459722434344937
upperneck 21.018336505495164 -3.6216031195060574 1.511065358377106
head 9.28638987330466 -1.7624921007864152 0.5209499376033692
lclavicle 1.4928445619910621e-16 2.387705023361382e-16
lhumerus -29.332835037789106 3.379211156705697 80.55641261387058
lradius 27.75107952448031
lwrist 7.066370858340054
lhand -30.677201804578505 24.119132642251344
lfingers 7.12502
lthumb -3.9102807010638694 53.67746196496512
rclavicle 1.4669876831729318e-16 2.367896082982316e-16
rhumerus -27.531101837689665 -19.734209075069796 -80.06581354495854
rradius 19.53464231025216
rwrist 10.331188982156029
rhand -18.195587458118997 20.85630268171993
rfingers 7.12502
rthumb 7.977116087368173 -8.561455409223623
